<?xml version="1.0" standalone="no"?>
<!DOCTYPE svg PUBLIC "-//W3C//DTD SVG 20010904//EN"
 "http://www.w3.org/TR/2001/REC-SVG-20010904/DTD/svg10.dtd">
<svg version="1.0" xmlns="http://www.w3.org/2000/svg"
 width="512.000000pt" height="512.000000pt" viewBox="0 0 512.000000 512.000000"
 preserveAspectRatio="xMidYMid meet">

<g transform="translate(0.000000,512.000000) scale(0.100000,-0.100000)"
fill="#000000" stroke="none">
<path d="M980 4897 c-84 -19 -149 -55 -211 -116 -170 -170 -170 -432 0 -601
71 -71 190 -130 260 -130 71 0 159 19 224 47 l58 26 22 -20 c12 -11 210 -185
440 -387 229 -202 417 -371 417 -375 0 -5 -15 -41 -34 -82 -18 -41 -39 -99
-47 -129 -14 -59 -18 -225 -7 -275 l6 -30 -545 -215 c-300 -118 -552 -217
-560 -218 -8 -2 -39 19 -69 48 -77 73 -184 120 -272 120 -179 0 -324 -86 -398
-235 -82 -166 -57 -349 67 -480 94 -100 194 -140 332 -133 120 6 206 42 275
116 84 90 132 208 132 323 0 36 2 38 53 57 28 11 276 108 550 216 274 108 502
196 507 196 5 0 22 -19 39 -43 42 -61 149 -158 216 -197 46 -26 56 -37 53 -54
-12 -56 -341 -1242 -348 -1249 -3 -4 -35 -12 -70 -18 -78 -12 -118 -29 -198
-82 -59 -38 -67 -49 -110 -135 -42 -85 -46 -101 -50 -180 -3 -70 0 -99 18
-151 101 -299 468 -395 693 -182 121 114 162 267 118 436 -24 94 -29 101 -116
183 l-76 71 161 583 c88 321 167 607 176 635 l15 53 77 0 c160 1 321 59 441
161 35 30 69 58 75 63 8 5 144 -74 386 -224 206 -127 378 -235 383 -239 4 -4
3 -35 -1 -69 -10 -68 -2 -141 22 -224 12 -42 29 -68 81 -122 179 -184 439
-191 616 -16 98 97 144 238 120 367 -38 204 -162 318 -397 362 -58 11 -66 10
-140 -19 -73 -28 -106 -45 -160 -85 -19 -14 -42 -2 -400 220 -208 129 -382
236 -386 237 -4 2 2 32 13 68 30 92 37 254 15 352 -17 75 -60 177 -97 229 -11
16 -19 33 -17 39 2 5 172 165 378 355 303 280 378 345 395 340 11 -3 53 -15
93 -26 73 -19 74 -19 150 2 147 39 245 116 305 238 30 63 32 72 32 181 0 110
-2 119 -32 181 -84 171 -272 270 -452 239 -179 -31 -303 -150 -352 -337 l-21
-83 21 -82 c12 -46 33 -101 46 -124 l24 -41 -67 -65 c-37 -35 -188 -176 -337
-313 -148 -137 -286 -264 -306 -282 l-36 -34 -64 35 c-142 77 -307 102 -459
72 -89 -18 -211 -69 -266 -111 -18 -14 -37 -25 -43 -25 -7 0 -778 670 -878
764 -10 9 -9 24 8 70 39 111 35 193 -13 306 -77 180 -289 289 -478 247z m178
-226 c163 -84 162 -299 -2 -383 -59 -30 -151 -22 -208 18 -138 97 -114 310 42
373 43 17 128 13 168 -8z m3200 0 c163 -84 162 -299 -2 -383 -58 -30 -149 -22
-206 17 -62 43 -90 98 -90 177 0 58 4 72 33 114 59 88 176 121 265 75z m-1508
-1231 c187 -29 350 -184 389 -368 26 -126 2 -247 -72 -360 -86 -131 -237 -213
-390 -212 -52 1 -171 32 -223 58 -87 44 -177 145 -209 233 -32 88 -36 105 -36
185 0 232 167 428 396 464 72 11 73 11 145 0z m-2110 -1120 c127 -65 149 -242
43 -342 -134 -127 -352 -30 -353 158 0 123 113 223 235 207 22 -3 56 -13 75
-23z m3861 -225 c64 -45 91 -104 87 -187 -4 -82 -39 -139 -108 -176 -63 -33
-157 -28 -217 12 -109 73 -123 240 -27 327 53 48 84 60 156 56 56 -2 74 -8
109 -32z m-2399 -1255 c99 -28 164 -144 138 -249 -23 -96 -106 -160 -208 -161
-180 -1 -277 212 -159 347 57 64 140 87 229 63z"/>
<path d="M1764 4576 c-92 -40 -84 -165 12 -196 76 -25 154 26 154 99 0 46 -23
79 -66 97 -41 17 -60 17 -100 0z"/>
<path d="M2183 4574 c-17 -9 -39 -31 -48 -50 -42 -90 49 -177 150 -144 40 13
75 59 75 98 0 39 -29 83 -65 98 -44 18 -72 17 -112 -2z"/>
<path d="M2613 4576 c-34 -16 -63 -61 -63 -98 0 -97 141 -143 204 -67 78 92
-28 216 -141 165z"/>
<path d="M3044 4576 c-92 -40 -84 -165 12 -196 76 -25 154 26 154 99 0 46 -23
79 -66 97 -41 17 -60 17 -100 0z"/>
<path d="M3464 4574 c-90 -44 -67 -181 32 -200 70 -13 144 40 144 104 0 39
-29 83 -65 98 -44 18 -72 17 -111 -2z"/>
<path d="M4255 3878 c-38 -21 -55 -51 -55 -101 0 -42 5 -54 34 -83 26 -26 42
-34 71 -34 29 0 45 8 71 34 29 29 34 41 34 81 0 40 -5 52 -34 81 -36 36 -81
44 -121 22z"/>
<path d="M860 3820 c-71 -76 -28 -200 70 -200 105 0 150 144 66 212 -12 11
-38 18 -64 18 -36 0 -49 -5 -72 -30z"/>
<path d="M4292 3495 c-66 -29 -78 -131 -21 -187 58 -59 159 -25 175 57 18 97
-68 169 -154 130z"/>
<path d="M794 3402 c-31 -25 -44 -55 -44 -102 0 -52 13 -76 50 -95 45 -23 85
-19 121 13 27 24 33 37 37 85 4 52 2 58 -26 87 -25 24 -39 30 -74 30 -26 0
-52 -7 -64 -18z"/>
<path d="M4314 3102 c-90 -72 -29 -228 81 -208 38 7 82 48 87 79 7 44 -10 101
-37 124 -32 28 -100 31 -131 5z"/>
<path d="M711 2969 c-28 -26 -41 -60 -41 -106 0 -50 54 -103 105 -103 29 0 45
8 71 34 30 30 34 40 34 86 0 44 -4 56 -29 81 -37 37 -104 41 -140 8z"/>
<path d="M4365 2728 c-36 -20 -55 -52 -55 -96 0 -75 40 -122 106 -122 64 0
104 47 104 121 0 78 -89 134 -155 97z"/>
<path d="M3783 1660 c-65 -39 -73 -112 -19 -166 41 -41 87 -45 137 -11 68 45
76 123 18 171 -37 32 -90 34 -136 6z"/>
<path d="M1108 1621 c-28 -25 -33 -36 -33 -74 0 -107 133 -165 199 -86 41 48
36 101 -13 150 -51 51 -104 54 -153 10z"/>
<path d="M3445 1475 c-47 -26 -64 -45 -71 -82 -13 -68 33 -123 103 -123 103 0
160 108 96 180 -34 38 -85 48 -128 25z"/>
<path d="M1464 1276 c-25 -25 -34 -43 -34 -67 0 -46 30 -92 75 -113 130 -62
216 119 92 194 -50 31 -93 26 -133 -14z"/>
<path d="M3072 1270 c-71 -43 -75 -140 -8 -181 38 -23 67 -24 109 -3 48 24 67
53 67 102 0 87 -88 130 -168 82z"/>
<path d="M2724 1081 c-71 -43 -86 -120 -35 -172 85 -85 241 24 187 130 -18 33
-62 61 -98 61 -13 0 -37 -9 -54 -19z"/>
</g>
</svg>
